<svg version="1.0" 
    xmlns="http://www.w3.org/2000/svg" width="300.000000pt" height="300.000000pt" viewBox="0 0 300.000000 300.000000" preserveAspectRatio="xMidYMid meet">

    <!-- DEFAULT COLOR = #7d2e68 -->

    <g transform="translate(0.000000,300.000000) scale(0.100000,-0.100000)">
        <path d="M868 2582 l-618 -357 1 -725 0 -725 222 -127 222 -128 3 215 c1 118
4 215 6 215 2 0 36 -18 75 -41 l71 -41 2 -220 3 -221 200 -116 c110 -65 255
-149 322 -188 l121 -71 321 185 321 186 0 218 0 217 71 41 c39 23 73 41 75 41
2 0 5 -96 6 -213 l3 -214 227 131 228 131 0 725 0 725 -616 355 c-339 195
-624 356 -633 357 -9 1 -294 -159 -633 -355z"/>
    </g>
</svg>
